<svg width="1176" height="524" viewBox="0 0 1176 524" fill="none" xmlns="http://www.w3.org/2000/svg">
<path d="M413.601 505.367L413.752 505.565H408.762C408.796 505.545 408.831 505.525 408.865 505.505C408.934 505.465 409.002 505.424 409.07 505.385C410.032 504.824 410.837 504.389 411.574 504.305C411.925 504.265 412.251 504.307 412.569 504.458C412.892 504.61 413.238 504.888 413.601 505.367ZM418.976 505.565H414.242L414.392 505.376C414.74 504.937 415.078 504.69 415.401 504.56C415.722 504.431 416.061 504.404 416.435 504.461C417.194 504.577 418.022 505.021 418.976 505.565Z" stroke="white"/>
<path d="M487.431 507.184C487.156 506.973 486.877 506.767 486.597 506.565H487.917C487.754 506.769 487.592 506.975 487.431 507.184Z" stroke="white"/>
<path d="M384.301 501.838L384.302 501.838C389.925 501.834 395.466 503.112 400.506 505.565H368.054C373.109 503.111 378.664 501.833 384.301 501.838Z" stroke="white"/>
<path d="M483.407 505.565H426.966C435.337 500.046 445.156 497.1 455.206 497.111L455.207 497.111C465.243 497.107 475.047 500.053 483.407 505.565Z" stroke="white"/>
<path d="M0.5 505.565H848.5V506.565H0.5V505.565Z" stroke="white"/>
<path d="M288.461 197.421C288.235 197.485 287.933 197.568 287.566 197.663C286.674 197.896 285.393 198.206 283.836 198.517C280.72 199.14 276.512 199.764 272.128 199.776C267.739 199.789 263.211 199.188 259.431 197.391C255.668 195.602 252.637 192.627 251.204 187.841C250.482 185.432 250.457 183.567 250.905 182.13C251.35 180.704 252.28 179.645 253.581 178.872C256.223 177.303 260.352 176.939 264.786 177.205C269.194 177.469 273.795 178.345 277.302 179.159C279.054 179.565 280.529 179.955 281.566 180.243C282.084 180.387 282.492 180.506 282.771 180.588C282.838 180.608 282.898 180.626 282.95 180.642L288.461 197.421Z" stroke="white"/>
<path d="M430.243 106.409L430.255 106.426L430.268 106.441C433.433 110.096 434.829 114.088 434.865 118.288C434.902 122.5 433.57 126.951 431.225 131.502C426.533 140.611 417.843 150.009 408.301 158.508C398.767 167 388.419 174.562 380.452 180.003C376.469 182.723 373.083 184.911 370.693 186.42C369.498 187.174 368.552 187.758 367.905 188.153C367.582 188.35 367.333 188.501 367.166 188.602C367.095 188.644 367.039 188.678 366.998 188.703L287.206 200.278L279.906 176.72L306.912 174.324L306.969 174.318L307.023 174.301L354.768 158.733L354.914 158.686L355.008 158.564L354.613 158.258C355.008 158.564 355.009 158.564 355.009 158.564L355.009 158.563L355.012 158.56L355.022 158.547L355.061 158.497L355.215 158.298C355.35 158.122 355.552 157.86 355.815 157.517C356.342 156.832 357.116 155.821 358.105 154.521C360.082 151.921 362.918 148.161 366.355 143.525C373.229 134.251 382.507 121.467 392.124 107.425C396.878 100.483 401.627 97.0072 406.037 95.6405C410.443 94.2752 414.584 94.993 418.171 96.5797C421.765 98.1693 424.784 100.624 426.912 102.693C427.974 103.726 428.809 104.659 429.378 105.332C429.663 105.668 429.88 105.94 430.026 106.126C430.099 106.219 430.154 106.291 430.19 106.339C430.208 106.363 430.222 106.381 430.231 106.393L430.24 106.406L430.242 106.409L430.243 106.409Z" stroke="white"/>
<path d="M396.396 280.613L349.255 307.129L348.785 307.394L349.084 307.843C351.529 311.51 353.201 316.745 354.321 322.581C355.44 328.408 356.001 334.788 356.25 340.711C356.5 346.633 356.438 352.089 356.313 356.065C356.25 358.053 356.172 359.67 356.11 360.789C356.079 361.349 356.052 361.784 356.032 362.08C356.031 362.097 356.03 362.113 356.029 362.13L329.876 366.004L329.839 365.856C329.743 365.471 329.603 364.903 329.423 364.174C329.064 362.716 328.548 360.611 327.924 358.026C326.674 352.855 324.987 345.764 323.238 338.079C319.736 322.697 315.994 304.978 314.997 295.513C314.512 290.901 315.966 286.131 318.47 281.539C320.973 276.95 324.504 272.58 328.112 268.785C331.719 264.992 335.389 261.788 338.16 259.531C339.544 258.403 340.703 257.513 341.515 256.905C341.92 256.601 342.239 256.368 342.456 256.211C342.492 256.185 342.525 256.161 342.555 256.14L396.396 280.613Z" stroke="white"/>
<path d="M455 314.383C448.374 321.518 446.237 332.034 445.751 340.788C445.499 345.317 445.688 349.403 445.939 352.358C446.065 353.835 446.207 355.031 446.317 355.858C446.372 356.272 446.419 356.593 446.453 356.812C446.47 356.922 446.483 357.005 446.493 357.062L446.503 357.127L446.506 357.144L446.507 357.148L446.507 357.15C446.507 357.15 446.507 357.15 447 357.065L446.507 357.15L446.527 357.265L446.596 357.359C450.528 362.766 452.698 369.862 453.723 377.507C454.748 385.146 454.625 393.295 454.002 400.774C453.379 408.25 452.257 415.044 451.291 419.969C450.808 422.431 450.364 424.425 450.041 425.803C449.879 426.491 449.748 427.026 449.657 427.388C449.641 427.453 449.626 427.512 449.612 427.565H422.457C422.452 427.511 422.446 427.451 422.441 427.387C422.403 426.973 422.346 426.364 422.273 425.583C422.127 424.022 421.912 421.775 421.638 419.031C421.091 413.545 420.309 406.073 419.372 398.132C418.434 390.191 417.339 381.777 416.166 374.408C414.994 367.051 413.739 360.701 412.474 356.907C410.003 349.493 409.25 336.57 409.125 325.435C409.063 319.881 409.156 314.794 409.265 311.096C409.32 309.247 409.379 307.745 409.423 306.706C409.442 306.277 409.458 305.927 409.471 305.664L455 314.383Z" stroke="white"/>
<path d="M402.669 203.05L476.037 195.118C476.059 195.441 476.091 195.906 476.132 196.496C476.216 197.706 476.337 199.436 476.486 201.523C476.783 205.695 477.189 211.29 477.626 216.979C478.064 222.667 478.533 228.451 478.955 233.002C479.166 235.277 479.366 237.247 479.545 238.744C479.634 239.492 479.718 240.125 479.796 240.621C479.873 241.105 479.948 241.491 480.026 241.723C480.026 241.723 480.026 241.723 480.026 241.724C480.027 241.733 480.042 241.819 480.034 242.037C480.026 242.248 480 242.53 479.955 242.884C479.866 243.59 479.704 244.548 479.48 245.727C479.03 248.083 478.333 251.291 477.466 255.063C475.733 262.604 473.327 272.382 470.89 282.068C468.453 291.754 465.985 301.347 464.125 308.518C463.196 312.103 462.419 315.084 461.874 317.167C461.601 318.209 461.387 319.027 461.241 319.584L461.136 319.984L406.028 309.159L407.999 279.598L408.095 278.157L407.128 279.231L389.449 298.874L338.007 256.336C338.098 254.913 339.014 253.046 340.693 250.813C342.445 248.481 344.96 245.836 347.997 243.009C354.069 237.358 362.175 231.027 370.295 225.094C378.412 219.162 386.53 213.635 392.62 209.591C395.665 207.569 398.202 205.918 399.978 204.772C400.866 204.2 401.563 203.753 402.039 203.45C402.276 203.299 402.459 203.183 402.581 203.105L402.669 203.05Z" stroke="white"/>
<path d="M356.101 358.158C356.122 358.278 356.148 358.417 356.176 358.576C356.281 359.17 356.429 360.03 356.6 361.098C356.943 363.233 357.379 366.194 357.753 369.496C358.503 376.121 358.994 384.056 358.008 389.476C356.987 395.092 358.265 401.936 359.766 407.814C360.306 409.932 360.88 411.94 361.392 413.728C361.591 414.426 361.781 415.091 361.956 415.716C362.268 416.831 362.531 417.817 362.715 418.645C362.901 419.481 363 420.123 363 420.565C363 420.629 362.982 420.692 362.867 420.776C362.732 420.875 362.492 420.976 362.113 421.052C361.36 421.202 360.242 421.222 358.846 421.129C356.067 420.944 352.344 420.324 348.598 419.575C344.858 418.827 341.115 417.954 338.306 417.267C336.902 416.924 335.732 416.627 334.914 416.417C334.569 416.328 334.287 416.255 334.076 416.2C335.973 405.728 335.654 394.973 333.138 384.63L328.108 363.95L356.101 358.158Z" stroke="white"/>
<path d="M319.5 434.565C319.947 434.789 319.947 434.789 319.947 434.789L319.947 434.788L319.948 434.787L319.952 434.78L319.965 434.754L320.016 434.652C320.06 434.562 320.126 434.43 320.211 434.259C320.381 433.916 320.628 433.42 320.933 432.802C321.543 431.567 322.387 429.847 323.325 427.908C325.2 424.033 327.455 419.274 328.96 415.762C329.661 414.124 330.619 413.374 331.619 413.094C332.647 412.806 333.812 412.989 334.952 413.409C336.086 413.827 337.142 414.459 337.92 414.993C338.308 415.259 338.623 415.498 338.84 415.67C338.949 415.756 339.033 415.825 339.089 415.872C339.117 415.896 339.138 415.914 339.152 415.925L339.16 415.932C340.762 417.527 343 418.365 345.405 418.7C347.821 419.036 350.45 418.872 352.884 418.424C355.318 417.975 357.583 417.237 359.272 416.407C360.116 415.993 360.834 415.548 361.36 415.091C361.759 414.744 362.096 414.35 362.255 413.919C362.433 414.133 362.663 414.454 362.937 414.888C363.764 416.193 364.856 418.276 365.977 420.598C367.096 422.915 368.235 425.453 369.157 427.66C370.083 429.878 370.775 431.728 371.015 432.687C371.031 432.752 371.03 432.886 370.89 433.122C370.752 433.357 370.508 433.639 370.146 433.965C369.425 434.614 368.321 435.36 366.932 436.166L365.796 436.826L367.083 437.088C367.342 437.141 367.574 437.282 367.742 437.486C367.909 437.691 368 437.947 368 438.211V438.92C368 439.223 367.879 439.515 367.664 439.73C367.45 439.945 367.158 440.065 366.854 440.065H366.146C365.842 440.065 365.55 439.945 365.336 439.73C365.121 439.515 365 439.223 365 438.92V438.213C365 438.211 365.001 438.206 365.002 438.194L365.007 438.157C365.009 438.142 365.012 438.122 365.014 438.1L365.102 437.188L364.288 437.607C363.136 438.198 361.885 438.804 360.584 439.411L359.796 439.778L360.51 440.274C360.661 440.379 360.785 440.519 360.87 440.683C360.955 440.846 361 441.027 361 441.211C361 441.211 361 441.211 361 441.211V441.92C361 442.223 360.879 442.515 360.664 442.73C360.45 442.945 360.158 443.065 359.854 443.065H359.146C358.842 443.065 358.55 442.945 358.336 442.73C358.121 442.515 358 442.223 358 441.92V441.357V440.59L357.298 440.899C356.095 441.43 354.877 441.951 353.67 442.459L352.879 442.791L353.558 443.316C353.695 443.422 353.806 443.557 353.883 443.713C353.959 443.868 354 444.039 354 444.212V444.92C354 445.223 353.879 445.515 353.664 445.73C353.45 445.945 353.158 446.065 352.854 446.065H352.146C351.842 446.065 351.55 445.945 351.336 445.73C351.121 445.515 351 445.223 351 444.92V444.309V443.566L350.312 443.846C347.304 445.067 344.558 446.129 342.563 446.887C341.566 447.266 340.757 447.568 340.198 447.775C339.918 447.879 339.701 447.959 339.553 448.013L339.386 448.075L339.343 448.09L339.335 448.093L339.33 448.095L339.293 448.107L339.148 448.155C339.02 448.197 338.831 448.259 338.585 448.339C338.093 448.498 337.375 448.727 336.475 449.009C334.673 449.571 332.138 450.341 329.207 451.166L327.823 451.556L327.824 451.555L326.61 451.883C324.942 452.334 323.19 452.788 321.403 453.223L319.976 453.571L321.319 454.166C321.522 454.256 321.694 454.402 321.815 454.588C321.935 454.773 322 454.99 322 455.211V455.92C322 456.223 321.879 456.515 321.664 456.73C321.45 456.945 321.158 457.065 320.854 457.065H320.146C319.842 457.065 319.55 456.945 319.336 456.73C319.121 456.515 319 456.223 319 455.92V455.212C319.001 455.005 319.059 454.802 319.167 454.626L319.79 453.613L318.631 453.876C316.249 454.416 313.857 454.903 311.567 455.285L310.142 455.523L311.409 456.217C311.587 456.315 311.736 456.459 311.84 456.634C311.944 456.809 311.999 457.008 312 457.212V457.92C312 458.223 311.879 458.515 311.664 458.73C311.45 458.945 311.158 459.065 310.854 459.065H310.146C309.842 459.065 309.55 458.945 309.336 458.73C309.121 458.515 309 458.223 309 457.92V457.212C309.001 456.956 309.089 456.709 309.249 456.509L310.028 455.538L308.794 455.701C307.928 455.815 307.086 455.908 306.277 455.979L305.536 456.044L305.875 456.706C305.956 456.863 305.999 457.036 306 457.213V457.92C306 458.223 305.879 458.515 305.664 458.73C305.45 458.945 305.158 459.065 304.854 459.065H304.146C303.842 459.065 303.55 458.945 303.336 458.73C303.121 458.515 303 458.223 303 457.92V457.213C303.001 457.075 303.027 456.94 303.077 456.812L303.336 456.143L302.619 456.131C301.113 456.105 299.842 455.945 298.863 455.633C297.881 455.32 297.252 454.873 296.934 454.317C296.522 453.596 296.492 452.783 296.812 451.86C297.137 450.923 297.816 449.898 298.779 448.82C300.704 446.666 303.66 444.414 306.775 442.358C309.883 440.306 313.119 438.47 315.581 437.146C316.811 436.484 317.846 435.951 318.573 435.584C318.937 435.4 319.223 435.258 319.419 435.162C319.516 435.113 319.591 435.077 319.642 435.052L319.698 435.025L319.712 435.018L319.716 435.016L319.717 435.016C319.717 435.016 319.717 435.016 319.5 434.565ZM319.5 434.565L319.717 435.016L319.871 434.942L319.947 434.789L319.5 434.565ZM327.167 452.627L327.748 451.679L329.196 452.125C329.428 452.197 329.632 452.341 329.776 452.537C329.921 452.732 329.999 452.969 330 453.212V453.92C330 454.223 329.879 454.515 329.664 454.73C329.45 454.945 329.158 455.065 328.854 455.065H328.146C327.842 455.065 327.55 454.945 327.336 454.73C327.121 454.515 327 454.223 327 453.92V453.212C327.001 453.006 327.059 452.803 327.167 452.627Z" stroke="white"/>
<path d="M420.85 422.1L451.435 424.031L443.885 482.033L416.839 480.09C416.806 479.982 416.768 479.84 416.728 479.661C416.617 479.152 416.5 478.344 416.5 477.19C416.5 474.882 416.967 471.189 418.872 465.73C419.855 462.915 420.458 458.735 420.819 454.088C421.18 449.43 421.3 444.259 421.3 439.44C421.3 434.62 421.18 430.145 421.06 426.875C421 425.24 420.939 423.906 420.894 422.98C420.877 422.624 420.862 422.329 420.85 422.1Z" stroke="white"/>
<path d="M401.116 487.614C401.506 487.925 401.506 487.925 401.507 487.925L401.507 487.925L401.508 487.923L401.513 487.918L401.531 487.895L401.602 487.806C401.664 487.727 401.757 487.611 401.875 487.462C402.113 487.163 402.458 486.728 402.884 486.188C403.738 485.107 404.923 483.601 406.245 481.9C408.887 478.501 412.084 474.317 414.288 471.196C415.316 469.741 416.409 469.206 417.445 469.141C418.511 469.074 419.612 469.496 420.639 470.145C421.661 470.789 422.562 471.627 423.212 472.312C423.536 472.653 423.794 472.953 423.97 473.166C424.059 473.273 424.126 473.358 424.172 473.416C424.194 473.444 424.211 473.466 424.222 473.481L424.228 473.489C425.463 475.383 427.477 476.669 429.759 477.498C432.052 478.331 434.657 478.718 437.131 478.787C439.605 478.856 441.974 478.607 443.8 478.147C444.711 477.918 445.506 477.632 446.116 477.295C446.579 477.04 446.991 476.724 447.236 476.336C447.366 476.582 447.523 476.944 447.701 477.425C448.238 478.875 448.871 481.14 449.484 483.644C450.095 486.144 450.68 488.863 451.121 491.213C451.564 493.576 451.856 495.53 451.89 496.517C451.892 496.585 451.863 496.715 451.677 496.917C451.493 497.118 451.196 497.343 450.774 497.586C449.933 498.071 448.698 498.57 447.171 499.069L445.923 499.477L447.127 500.002C447.369 500.108 447.567 500.294 447.688 500.529C447.808 500.764 447.844 501.033 447.789 501.291C447.789 501.292 447.789 501.292 447.789 501.292L447.642 501.985C447.578 502.282 447.399 502.542 447.144 502.707C446.889 502.872 446.579 502.93 446.282 502.866L445.589 502.718C445.292 502.655 445.032 502.476 444.867 502.221C444.701 501.966 444.644 501.656 444.708 501.359L444.219 501.255L444.708 501.359L444.855 500.668C444.855 500.666 444.857 500.661 444.861 500.65L444.873 500.615C444.875 500.61 444.876 500.606 444.878 500.601C444.882 500.589 444.887 500.575 444.892 500.56L445.169 499.687L444.284 499.926C443.035 500.265 441.685 500.596 440.286 500.919L439.439 501.114L440.034 501.748C440.16 501.882 440.251 502.045 440.301 502.222C440.35 502.4 440.356 502.586 440.318 502.766C440.318 502.766 440.318 502.766 440.318 502.766L440.17 503.459C440.107 503.756 439.928 504.016 439.673 504.181C439.418 504.347 439.108 504.404 438.81 504.341L438.117 504.193L438.013 504.682L438.117 504.193C437.82 504.13 437.56 503.951 437.395 503.696C437.23 503.441 437.172 503.131 437.236 502.834L437.353 502.283L437.513 501.534L436.762 501.69C435.474 501.957 434.175 502.214 432.888 502.458L432.045 502.618L432.6 503.273C432.712 503.405 432.793 503.561 432.835 503.729C432.878 503.897 432.881 504.072 432.846 504.242C432.846 504.242 432.846 504.242 432.846 504.242L432.698 504.934C432.635 505.231 432.456 505.491 432.201 505.656C431.946 505.821 431.636 505.879 431.339 505.815L430.646 505.668L430.542 506.157L430.646 505.668C430.349 505.604 430.089 505.425 429.923 505.17C429.758 504.916 429.701 504.605 429.764 504.308L429.892 503.711L430.046 502.985L429.315 503.114C426.119 503.682 423.211 504.148 421.103 504.473C420.049 504.636 419.194 504.762 418.604 504.849C418.309 504.892 418.079 504.925 417.924 504.947L417.747 504.972L417.702 504.979L417.694 504.98L417.689 504.98L417.65 504.985L417.498 505.001C417.365 505.016 417.166 505.037 416.909 505.063C416.395 505.116 415.645 505.191 414.705 505.279C412.826 505.453 410.187 505.677 407.148 505.874L405.713 505.966L405.714 505.965L404.458 506.033C402.733 506.126 400.925 506.205 399.087 506.258L397.618 506.301L398.808 507.163C398.987 507.293 399.125 507.472 399.204 507.679C399.284 507.885 399.302 508.111 399.256 508.327L399.108 509.02L399.597 509.124L399.108 509.02C399.045 509.317 398.866 509.577 398.611 509.742C398.356 509.907 398.046 509.965 397.749 509.901L397.056 509.754L396.951 510.243L397.056 509.754C396.758 509.69 396.499 509.511 396.333 509.256C396.168 509.002 396.111 508.691 396.174 508.394L396.321 507.703C396.321 507.703 396.322 507.703 396.322 507.702C396.366 507.5 396.465 507.314 396.608 507.164L397.427 506.303L396.239 506.319C393.797 506.35 391.356 506.327 389.036 506.224L387.594 506.159L388.688 507.102C388.842 507.235 388.958 507.407 389.023 507.6C389.088 507.792 389.1 507.999 389.059 508.198C389.058 508.199 389.058 508.199 389.058 508.199L388.911 508.891C388.848 509.188 388.669 509.448 388.414 509.613C388.159 509.778 387.849 509.836 387.552 509.772L386.859 509.625L386.754 510.114L386.859 509.625C386.561 509.561 386.302 509.382 386.136 509.127C385.971 508.872 385.914 508.562 385.977 508.265L386.124 507.574C386.124 507.574 386.124 507.573 386.124 507.573C386.179 507.323 386.316 507.099 386.514 506.938L387.479 506.151L386.238 506.052C385.367 505.983 384.525 505.899 383.718 505.8L382.98 505.709L383.174 506.427C383.22 506.597 383.226 506.775 383.19 506.948C383.19 506.949 383.19 506.949 383.19 506.95L383.043 507.64L383.043 507.64C382.979 507.937 382.801 508.197 382.546 508.362C382.291 508.527 381.981 508.585 381.683 508.521L380.99 508.374L380.886 508.863L380.99 508.374C380.693 508.31 380.433 508.131 380.268 507.876C380.103 507.621 380.045 507.311 380.109 507.014L380.256 506.324C380.256 506.324 380.256 506.323 380.256 506.323C380.286 506.189 380.34 506.061 380.415 505.946L380.808 505.347L380.109 505.185C378.642 504.846 377.432 504.424 376.54 503.915C375.644 503.404 375.122 502.836 374.927 502.226L374.451 502.378L374.927 502.226C374.675 501.435 374.815 500.634 375.321 499.797C375.834 498.949 376.711 498.088 377.878 497.235C380.21 495.53 383.571 493.943 387.046 492.581C390.513 491.223 394.061 490.102 396.744 489.321C398.085 488.93 399.209 488.624 399.997 488.416C400.391 488.312 400.701 488.233 400.912 488.18C401.017 488.153 401.098 488.133 401.153 488.119L401.214 488.104L401.229 488.1L401.233 488.1L401.234 488.099C401.234 488.099 401.234 488.099 401.116 487.614ZM401.116 487.614L401.234 488.099L401.4 488.059L401.506 487.925L401.116 487.614ZM404.848 506.877L405.614 506.071L406.937 506.809C407.149 506.928 407.318 507.111 407.419 507.332C407.52 507.554 407.547 507.802 407.497 508.04L407.349 508.732C407.286 509.029 407.107 509.289 406.852 509.454C406.597 509.619 406.287 509.677 405.99 509.613L405.297 509.466L405.193 509.955L405.297 509.466C405 509.402 404.74 509.223 404.574 508.968C404.409 508.714 404.352 508.403 404.415 508.106L404.563 507.415C404.563 507.415 404.563 507.415 404.563 507.414C404.607 507.212 404.705 507.026 404.848 506.877Z" stroke="white"/>
<path d="M431 43.5653C431 59.3054 418.24 72.0653 402.5 72.0653C386.76 72.0653 374 59.3054 374 43.5653C374 27.8252 386.76 15.0653 402.5 15.0653C418.24 15.0653 431 27.8252 431 43.5653Z" stroke="white"/>
<path d="M427.793 41.9933C428.065 41.7155 428.291 41.4864 428.463 41.3121C428.562 41.4328 428.681 41.5769 428.819 41.7423C429.274 42.2899 429.933 43.0704 430.749 44.0036C432.379 45.8692 434.638 48.3485 437.151 50.7982C439.661 53.2453 442.437 55.6761 445.099 57.4355C447.157 58.7948 449.214 59.7994 451.061 60.044L417.801 85.7012C417.681 85.2296 417.505 84.5564 417.279 83.7434C416.823 82.1108 416.163 79.9107 415.345 77.6454C414.528 75.3833 413.548 73.0399 412.449 71.1285C411.899 70.1725 411.313 69.3128 410.695 68.6222C410.079 67.9346 409.409 67.3902 408.686 67.1009C408.508 67.03 408.423 66.9281 408.378 66.7832C408.324 66.611 408.318 66.3405 408.411 65.9449C408.596 65.1537 409.125 64.0708 409.94 62.7677C411.559 60.1773 414.193 56.889 417.003 53.6424C419.808 50.4008 422.771 47.2197 425.034 44.8478C426.165 43.6622 427.12 42.6795 427.793 41.9933Z" stroke="white"/>
<path d="M491 189.065L490.5 189.065L490.5 189.079L491 189.065ZM491 189.065C490.5 189.065 490.5 189.065 490.5 189.064V189.06L490.5 189.046L490.5 188.986L490.499 188.75C490.499 188.541 490.498 188.231 490.495 187.827C490.491 187.017 490.482 185.828 490.464 184.311C490.428 181.278 490.355 176.933 490.211 171.689C489.921 161.201 489.343 147.12 488.187 132.744C487.03 118.364 485.296 103.707 482.701 92.0592C481.403 86.2339 479.893 81.1809 478.141 77.2981C476.38 73.3946 474.415 70.7655 472.258 69.6583C463.014 64.911 455.334 61.1829 449.967 58.6419C447.283 57.3713 445.177 56.3976 443.743 55.7417C443.075 55.4364 442.553 55.2 442.185 55.0345C441.833 58.4766 440.81 61.8186 439.169 64.8703C437.417 68.1301 435 70.9861 432.076 73.2536L432.075 73.2542C429 75.6283 425.919 77.8089 423.17 79.3999C421.796 80.1955 420.496 80.8488 419.315 81.3051C418.139 81.7594 417.052 82.0301 416.112 82.0336L415.714 82.035L415.623 81.6479L415.519 81.2055L415.45 81.0085L405.921 95.8356L405.809 96.0087L405.609 96.0533L405.609 96.0534L405.608 96.0534L405.608 96.0535L405.604 96.0544L405.587 96.0583C405.579 96.0601 405.569 96.0624 405.557 96.0653C405.545 96.0681 405.532 96.0714 405.516 96.0752C405.452 96.0906 405.357 96.1141 405.235 96.1464C404.99 96.211 404.634 96.3104 404.197 96.4483C403.323 96.7245 402.127 97.154 400.84 97.7667C398.249 99.0004 395.372 100.939 393.947 103.789C393.891 103.902 393.831 104.139 393.798 104.551C393.766 104.948 393.762 105.459 393.784 106.081C393.828 107.324 393.975 108.967 394.184 110.958C394.325 112.297 394.494 113.792 394.678 115.421C395.039 118.617 395.459 122.329 395.838 126.395C396.983 138.679 397.769 154.291 395.494 169.141C393.561 181.763 388.525 193.753 383.928 202.917C381.628 207.501 379.435 211.384 377.791 214.288L377.711 214.43C376.924 215.82 376.271 216.974 375.797 217.868C375.552 218.33 375.358 218.716 375.22 219.024C375.077 219.344 375.011 219.544 374.993 219.647C374.956 219.87 374.995 219.956 375.01 219.98C375.02 219.996 375.056 220.045 375.21 220.077C375.555 220.15 376.185 220.072 377.119 219.784C378.944 219.221 381.572 217.976 384.536 216.387C390.45 213.217 397.574 208.751 402.005 205.901L402.363 205.67L402.648 205.987C402.711 206.058 402.765 206.117 402.803 206.158L402.847 206.205L402.858 206.216L402.861 206.219L402.861 206.22L402.982 206.346C403.934 206.093 405.336 205.692 407.356 205.086C413.109 203.36 421.094 203.272 426.893 203.509L427.374 203.529L427.372 204.01C427.365 205.744 427.406 207.103 427.498 208.016C427.604 209.076 428.378 210.281 429.827 211.591C431.262 212.887 433.286 214.221 435.738 215.547C440.638 218.199 447.169 220.782 453.904 222.965C460.637 225.146 467.553 226.922 473.216 227.964C476.048 228.485 478.557 228.822 480.567 228.935C482.607 229.051 484.047 228.93 484.803 228.606C485.513 228.302 486.194 227.527 486.819 226.263C487.437 225.014 487.962 223.365 488.403 221.438C489.285 217.586 489.814 212.711 490.126 207.908C490.438 203.109 490.531 198.401 490.547 194.891C490.555 193.137 490.543 191.683 490.529 190.668C490.523 190.16 490.515 189.762 490.51 189.492C490.507 189.387 490.506 189.301 490.504 189.235L490.503 189.183L490.501 189.105L490.5 189.085L490.5 189.08L490.5 189.079C490.5 189.079 490.5 189.079 491 189.065Z" stroke="white"/>
<path d="M473.386 231.441C473.325 231.668 473.242 231.969 473.137 232.335C472.881 233.219 472.494 234.48 471.966 235.977C470.91 238.974 469.297 242.911 467.069 246.686C464.839 250.466 462.01 254.052 458.534 256.384C455.074 258.706 450.968 259.792 446.121 258.58C443.682 257.97 442.066 257.04 441.059 255.92C440.061 254.809 439.625 253.47 439.625 251.956C439.625 248.883 441.421 245.147 443.914 241.471C446.391 237.816 449.495 234.308 451.986 231.708C453.23 230.409 454.319 229.34 455.096 228.596C455.484 228.224 455.795 227.934 456.008 227.736C456.059 227.689 456.105 227.646 456.145 227.61L473.386 231.441Z" stroke="white"/>
<path d="M431.556 294.128C429.109 294.009 426.702 294.212 424.479 294.891C425.794 293.925 427.434 292.832 429.233 291.882C431.454 290.71 433.889 289.773 436.235 289.547C438.569 289.323 440.797 289.802 442.671 291.442C446.665 294.937 449.911 297.932 452.157 300.054C452.445 300.326 452.716 300.583 452.971 300.826C452.801 300.738 452.625 300.648 452.445 300.557C450.088 299.362 446.816 297.852 443.163 296.593C439.513 295.334 435.464 294.319 431.556 294.128Z" stroke="white"/>
<path d="M427.666 450.907C428.191 450.559 428.769 450.207 429.379 449.885C430.618 449.231 431.961 448.717 433.244 448.593C434.515 448.471 435.706 448.733 436.707 449.608C438.619 451.281 440.227 452.751 441.442 453.888C440.246 453.319 438.787 452.688 437.199 452.141C435.131 451.428 432.827 450.849 430.597 450.74C429.603 450.692 428.616 450.736 427.666 450.907Z" stroke="white"/>
<path d="M346.907 378.071C349.223 379.115 351.189 380.053 352.682 380.787C351.373 380.591 349.793 380.412 348.115 380.351C345.929 380.27 343.556 380.387 341.39 380.932C340.425 381.175 339.494 381.505 338.635 381.945C339.036 381.459 339.486 380.954 339.976 380.469C340.972 379.482 342.107 378.599 343.299 378.108C344.478 377.621 345.694 377.524 346.907 378.071Z" stroke="white"/>
<path d="M505.909 159.117C505.941 159.288 505.965 159.42 505.982 159.51L475.201 233.979L451.219 228.224L462.951 203.782L462.975 203.73L462.988 203.675L473.988 154.675L474.033 154.472L473.922 154.296C462.558 136.476 454.138 116.943 448.985 96.4454C448.906 96.1187 448.831 95.7951 448.758 95.4747L448.27 95.5848L448.758 95.4747C443.983 74.3222 473.356 63.7786 482.996 83.1568C490.224 97.6867 495.978 116.802 499.927 132.307C501.9 140.055 503.421 146.894 504.448 151.795C504.962 154.245 505.352 156.211 505.613 157.563C505.744 158.24 505.843 158.763 505.909 159.117Z" stroke="white"/>
<path opacity="0.2" d="M465.509 193.935L451.883 222.89L468.064 161.573L465.509 193.935Z" stroke="white"/>
<path d="M420.35 10.1057L420.35 10.1058L420.471 10.2329L420.645 10.2567C424.04 10.7225 426.87 13.1545 429.138 16.6479C431.402 20.1343 433.056 24.6051 434.117 28.9844C435.177 33.3632 435.635 37.6117 435.53 40.6375C435.477 42.1605 435.282 43.3237 434.982 44.0346C434.831 44.3915 434.676 44.579 434.553 44.6626C434.458 44.7269 434.355 44.7507 434.188 44.6902C432.86 44.209 431.707 44.2582 430.733 44.6348C429.77 45.0069 429.024 45.6822 428.462 46.3877C427.943 47.0397 427.568 47.7361 427.314 48.2923L415.326 22.691L415.112 22.2342L414.658 22.4521L414.874 22.9031C414.658 22.4521 414.657 22.4521 414.657 22.4522L414.657 22.4524L414.655 22.4535L414.645 22.4581L414.606 22.4767C414.571 22.4932 414.519 22.5178 414.45 22.5501C414.313 22.6145 414.11 22.7094 413.845 22.8308C413.317 23.0735 412.547 23.4219 411.581 23.8435C409.648 24.6869 406.931 25.823 403.799 26.9933C397.524 29.3381 389.622 31.8034 383.013 32.3485C379.574 32.6323 377.137 33.8099 375.438 35.4513C373.745 37.0867 372.82 39.1466 372.333 41.1389C371.914 42.8567 371.816 44.5413 371.839 45.8977C371.454 45.0038 371.003 43.9344 370.529 42.7567C369.163 39.3642 367.61 35.0987 366.828 31.5465C366.085 28.1689 367.496 23.9447 371.195 19.18C374.882 14.4301 380.782 9.22708 388.822 3.93057C396.69 -1.25183 404.531 0.255295 410.465 3.10241C413.432 4.52634 415.907 6.27989 417.642 7.67957C418.509 8.37882 419.188 8.98823 419.651 9.42161C419.882 9.63826 420.058 9.81081 420.176 9.92844C420.235 9.98726 420.279 10.0323 420.308 10.0623L420.341 10.0958L420.349 10.1038L420.35 10.1055L420.35 10.1057Z" stroke="white"/>
<path d="M316.87 398.584L316.877 398.543C317.291 396.072 317.499 393.571 317.5 391.065L316.87 398.584ZM316.87 398.584V398.593M316.87 398.584V398.593M316.87 398.593C315.731 405.223 313.103 411.509 309.184 416.978C305.258 422.459 300.137 426.976 294.21 430.188C288.282 433.4 281.702 435.224 274.967 435.522C268.231 435.82 261.516 434.583 255.329 431.906L255.234 431.865H255.224C253.427 431.085 251.685 430.184 250.009 429.168L250.008 429.167C244.724 425.976 240.159 421.723 236.605 416.675C233.051 411.628 230.584 405.898 229.36 399.847C228.787 396.955 228.499 394.014 228.5 391.065V391.065C228.5 389.72 228.559 388.385 228.678 387.07L228.68 387.048V387.038C229.711 375.691 235.056 365.171 243.612 357.648C252.175 350.119 263.301 346.164 274.694 346.599C286.088 347.034 296.879 351.826 304.843 359.986C312.805 368.145 317.332 379.049 317.49 390.449V390.455V390.467L317.491 390.479C317.5 390.675 317.5 390.854 317.5 391.065L316.87 398.593Z" stroke="white"/>
<path d="M264.644 374.285L264.788 374.535H265.077H282.923H283.211L283.356 374.285L292.278 358.835L292.423 358.585L292.278 358.335L286.829 348.897L286.732 348.729L286.547 348.671C278.55 346.135 270.002 345.892 261.874 347.971L261.67 348.024L261.564 348.206L255.722 358.335L255.577 358.585L255.722 358.835L264.644 374.285ZM293.577 358.585L283.788 375.535H264.211L254.423 358.585L261.01 347.166L261.209 347.113C261.209 347.113 261.209 347.113 261.21 347.113C269.769 344.826 278.808 345.078 287.226 347.84C287.227 347.84 287.227 347.84 287.227 347.84L287.407 347.9L293.577 358.585Z" stroke="white"/>
<path d="M263.644 410.286L263.788 410.536H264.077H281.923H282.212L282.356 410.286L291.278 394.832L291.423 394.582L291.278 394.332L282.356 378.878L282.212 378.628H281.923H264.077H263.788L263.644 378.878L254.722 394.332L254.577 394.582L254.722 394.832L263.644 410.286ZM292.577 394.582L282.788 411.536H263.212L253.423 394.582L263.212 377.628H282.788L292.577 394.582Z" stroke="white"/>
<path d="M273.001 436.565L272.999 436.565C266.783 436.577 260.631 435.303 254.931 432.824L254.931 432.823L254.417 432.6L264.211 415.625H283.788L293.162 431.863L292.677 432.096L292.676 432.096C286.54 435.054 279.813 436.581 273.001 436.565ZM256.13 431.632L255.842 432.131L256.376 432.346C261.937 434.583 267.892 435.675 273.885 435.557C279.878 435.438 285.785 434.111 291.253 431.656L291.758 431.429L291.481 430.95L283.356 416.875L283.212 416.625H282.923H265.078H264.789L264.645 416.875L256.13 431.632Z" stroke="white"/>
<path d="M306.033 359.781L306.033 359.781C313.904 368.062 318.354 379.012 318.49 390.435V390.588L316.788 393.535H297.211L287.423 376.585L297.211 359.625H305.885L306.033 359.781ZM297.644 392.285L297.788 392.535H298.077H315.923H316.211L316.356 392.285L317.419 390.444L317.489 390.324L317.486 390.185C317.291 379.254 313.058 368.781 305.603 360.784L305.455 360.625H305.237H298.078H297.789L297.645 360.875L288.722 376.335L288.577 376.585L288.722 376.835L297.644 392.285Z" stroke="white"/>
<path d="M297.258 429.568L297.257 429.568L296.818 429.846L287.423 413.585L297.211 396.625H316.788L317.866 398.482L317.857 398.752C316.774 405.039 314.383 411.028 310.84 416.333C307.29 421.648 302.663 426.157 297.258 429.568ZM288.722 413.335L288.577 413.585L288.722 413.835L296.897 427.983L297.163 428.444L297.606 428.15C302.615 424.822 306.899 420.515 310.2 415.489C313.501 410.463 315.752 404.821 316.816 398.903L316.849 398.722L316.757 398.563L316.356 397.874L316.212 397.625H315.924H298.078H297.789L297.645 397.875L288.722 413.335Z" stroke="white"/>
<path d="M229.493 399.866L229.397 400.032L229.437 400.22C230.665 406.026 233.04 411.529 236.422 416.407C239.804 421.284 244.125 425.437 249.132 428.624L249.572 428.904L249.833 428.452L258.278 413.835L258.423 413.585L258.278 413.335L249.355 397.875L249.211 397.625H248.922H231.077H230.789L230.644 397.875L229.493 399.866ZM259.577 413.585L249.928 430.287L249.492 430.023C249.492 430.023 249.492 430.023 249.491 430.023C244.09 426.758 239.424 422.408 235.79 417.247C232.157 412.087 229.633 406.228 228.38 400.043C228.38 400.042 228.38 400.042 228.38 400.042L228.343 399.858L230.211 396.625H249.789L259.577 413.585Z" stroke="white"/>
<path d="M242.009 357.759L242.009 357.759L242.153 357.625H249.789L259.577 374.585L249.789 391.535H230.212L227.68 387.16V387.047C228.661 375.846 233.768 365.408 242.009 357.759ZM230.644 390.285L230.788 390.535H231.077H248.923H249.212L249.356 390.285L258.278 374.835L258.423 374.585L258.278 374.335L249.355 358.875L249.211 358.625H248.922H242.746H242.547L242.403 358.761C234.6 366.126 229.734 376.071 228.707 386.751L228.692 386.91L228.772 387.049L230.644 390.285Z" stroke="white"/>
<path d="M500.121 422.405L503.975 421.634C513.672 421.762 521.251 424.139 526.71 428.763C532.169 433.323 534.898 439.841 534.898 448.319C534.898 458.659 531.815 468.228 525.65 477.026C517.365 488.908 505.709 497.192 490.68 501.881C481.432 504.706 475.524 505.252 472.955 503.518C471.414 502.491 470.643 500.66 470.643 498.027L471.606 420.767V410.266C471.606 401.083 471.446 393.568 471.125 387.724C470.868 381.88 470.643 376.999 470.45 373.081C470.258 369.164 470.065 365.599 469.872 362.388C469.744 359.113 469.872 357.058 470.258 356.223C470.707 355.324 471.285 354.649 471.992 354.2C473.597 353.108 478.093 351.856 485.478 350.443C492.928 349.03 498.676 348.323 502.722 348.323C523.723 348.323 534.224 357.186 534.224 374.912C534.224 389.298 526.645 402.399 511.489 414.216C507.956 416.978 504.167 419.707 500.121 422.405ZM480.276 494.463C485.607 494.27 490.68 493.082 495.497 490.898C500.956 488.33 505.355 485.793 508.695 483.288C512.035 480.719 515.021 477.765 517.654 474.425C523.434 467.104 526.324 458.755 526.324 449.378C526.324 442.763 523.723 437.69 518.521 434.157C513.833 431.01 507.924 429.437 500.796 429.437C494.63 429.437 489.492 430.143 485.382 431.556C482.942 432.391 481.015 433.13 479.602 433.772C479.602 435.249 479.634 436.823 479.698 438.492C479.698 443.052 479.698 448.03 479.698 453.424C479.763 458.819 479.827 464.214 479.891 469.609C480.019 481.233 480.148 489.518 480.276 494.463ZM479.602 424.813C488.401 423.015 497.745 417.748 507.635 409.014C514.7 402.784 519.773 395.848 522.856 388.206C524.398 384.224 525.168 380.242 525.168 376.26C525.168 372.279 524.526 369.035 523.242 366.531C522.021 363.962 520.352 361.874 518.232 360.269C514.186 357.379 508.631 355.934 501.566 355.934C493.538 355.934 486.378 357.379 480.084 360.269C480.084 361.104 480.052 362.195 479.987 363.544C479.923 365.856 479.859 369.356 479.795 374.045C479.666 383.421 479.602 393.793 479.602 405.161V424.813ZM585.859 439.167C583.74 437.625 581.235 436.855 578.345 436.855C575.519 436.855 572.918 437.658 570.542 439.263C568.23 440.805 566.271 442.988 564.665 445.814C561.39 451.466 559.752 459.237 559.752 469.127C559.752 478.953 561.326 486.21 564.473 490.898C567.62 495.587 571.826 497.931 577.093 497.931C582.873 497.931 587.497 494.623 590.965 488.008C594.047 482.1 595.589 474.843 595.589 466.237C595.589 453.007 592.346 443.984 585.859 439.167ZM576.996 506.119C573.336 506.184 569.9 505.445 566.688 503.904C563.542 502.298 560.812 499.826 558.5 496.486C553.426 489.421 550.89 479.37 550.89 466.333C550.89 454.645 553.619 445.429 559.078 438.685C564.216 432.263 571.023 429.052 579.501 429.052C586.63 429.052 592.538 432.134 597.227 438.3C602.043 444.851 604.452 453.842 604.452 465.273C604.452 477.99 601.658 488.137 596.07 495.715C591.061 502.523 584.703 505.991 576.996 506.119ZM654.642 439.167C652.523 437.625 650.018 436.855 647.128 436.855C644.302 436.855 641.701 437.658 639.325 439.263C637.013 440.805 635.054 442.988 633.448 445.814C630.173 451.466 628.535 459.237 628.535 469.127C628.535 478.953 630.109 486.21 633.256 490.898C636.403 495.587 640.609 497.931 645.875 497.931C651.656 497.931 656.28 494.623 659.748 488.008C662.83 482.1 664.372 474.843 664.372 466.237C664.372 453.007 661.128 443.984 654.642 439.167ZM645.779 506.119C642.118 506.184 638.683 505.445 635.471 503.904C632.324 502.298 629.595 499.826 627.283 496.486C622.209 489.421 619.672 479.37 619.672 466.333C619.672 454.645 622.402 445.429 627.861 438.685C632.999 432.263 639.806 429.052 648.284 429.052C655.413 429.052 661.321 432.134 666.009 438.3C670.826 444.851 673.235 453.842 673.235 465.273C673.235 477.99 670.441 488.137 664.853 495.715C659.844 502.523 653.486 505.991 645.779 506.119ZM739.802 431.556C741.086 431.556 742.21 432.038 743.173 433.001C744.137 433.965 744.618 435.217 744.618 436.758C744.618 438.236 743.88 440.034 742.403 442.153C740.99 444.208 739.224 446.424 737.104 448.8C735.049 451.112 732.866 453.456 730.554 455.833C728.563 457.888 726.764 459.815 725.159 461.613C727.856 469.833 732.545 478.696 739.224 488.201C741.086 490.77 742.531 492.954 743.559 494.752C744.586 496.486 745.1 497.963 745.1 499.183C745.1 500.339 744.522 501.495 743.366 502.651C742.21 503.807 741.022 504.385 739.802 504.385C736.976 504.385 735.017 503.101 733.925 500.532C732.898 497.899 731.581 494.912 729.976 491.573C728.37 488.169 726.732 484.829 725.063 481.554C722.301 476.159 719.925 471.76 717.934 468.356C716.2 470.026 714.305 471.792 712.25 473.655C709.36 476.288 707.144 478.343 705.603 479.82C705.218 480.205 704.832 480.559 704.447 480.88V481.072C704.447 482.678 704.479 484.444 704.543 486.371C704.607 488.233 704.672 490.128 704.736 492.055C704.8 493.917 704.832 495.779 704.832 497.642C704.896 499.44 704.351 500.885 703.195 501.977C702.039 503.069 700.786 503.615 699.438 503.615C698.153 503.615 696.997 503.133 695.969 502.17C694.942 501.206 694.492 499.215 694.621 496.197C694.749 493.114 694.846 489.068 694.91 484.059C695.038 479.049 695.102 473.687 695.102 467.971C695.231 450.952 695.295 438.46 695.295 430.497C695.295 422.469 695.263 414.088 695.199 405.353C695.135 396.619 695.038 388.206 694.91 380.114C694.524 361.939 693.882 348.58 692.983 340.039C692.79 337.983 693.272 336.474 694.428 335.511C695.648 334.483 696.997 333.969 698.474 333.969C700.016 333.969 701.396 334.483 702.617 335.511C703.901 336.474 704.479 338.176 704.351 340.617C704.286 343.057 704.222 346.172 704.158 349.961C704.158 353.75 704.158 357.893 704.158 362.388C704.286 375.875 704.351 385.862 704.351 392.348C704.351 398.771 704.318 405.514 704.254 412.578C704.254 419.579 704.222 426.643 704.158 433.772C704.094 448.351 704.158 460.81 704.351 471.15C710.901 465.049 718.03 457.053 725.737 447.163C729.462 442.41 731.838 438.942 732.866 436.758C734.6 433.29 736.912 431.556 739.802 431.556ZM862.725 383.196L862.821 417.973C862.821 442.25 863.335 468.934 864.362 498.027C864.427 500.082 863.881 501.592 862.725 502.555C861.633 503.518 860.38 504 858.968 504C857.555 504 856.27 503.454 855.114 502.362C853.958 501.271 853.38 499.697 853.38 497.642C854.344 468.742 854.825 444.658 854.825 425.391V375.49C854.825 371.765 854.793 368.265 854.729 364.989C853.316 370.448 851.486 377.545 849.238 386.279C844.1 405.482 840.503 418.776 838.448 426.162C836.393 433.483 834.338 440.708 832.283 447.837C828.044 462.544 824.094 475.453 820.434 486.563C820.048 487.848 819.278 488.811 818.122 489.453C817.03 490.096 815.97 490.417 814.943 490.417C812.952 490.417 811.603 489.132 810.897 486.563C810.576 485.536 809.805 483.063 808.585 479.146C807.429 475.164 805.951 470.283 804.153 464.503C802.419 458.659 800.46 452.14 798.277 444.947C796.157 437.69 793.942 430.272 791.63 422.694C789.382 415.115 787.166 407.601 784.983 400.151C782.799 392.701 780.808 385.83 779.01 379.536C777.533 374.334 776.28 369.838 775.253 366.049L775.445 389.94C775.445 419.033 775.734 443.084 776.313 462.094C776.955 481.104 777.308 492.151 777.372 495.234C777.436 498.316 777.276 500.211 776.891 500.917C776.569 501.624 776.12 502.202 775.542 502.651C773.037 504.771 770.565 504.706 768.124 502.459C766.968 501.367 766.454 499.44 766.583 496.679C766.775 493.917 766.936 490.481 767.064 486.371C767.193 482.196 767.289 477.797 767.353 473.173C767.61 462.255 767.739 452.14 767.739 442.828L766.583 355.163C766.583 352.273 767.257 350.25 768.606 349.094C769.954 347.874 771.528 347.264 773.326 347.264C776.73 347.264 779.074 349.319 780.359 353.429C780.487 353.814 780.808 354.97 781.322 356.897C781.9 358.76 782.638 361.232 783.538 364.315C784.437 367.333 785.464 370.866 786.62 374.912C787.841 378.893 789.125 383.196 790.474 387.82C791.822 392.445 793.235 397.293 794.712 402.367C799.85 420.028 806.947 444.208 816.002 474.907C820.755 461.356 829.521 430.625 842.302 382.715C844.806 373.21 847.311 363.512 849.816 353.622C850.972 349.19 853.637 346.975 857.812 346.975C859.481 346.975 860.798 347.81 861.761 349.479C862.789 351.085 863.238 353.429 863.11 356.512C862.853 360.815 862.725 369.71 862.725 383.196ZM926.305 484.251C926.241 480.719 926.241 476.384 926.305 471.246C923.544 470.283 920.044 469.801 915.805 469.801C910.089 469.801 905.401 471.182 901.74 473.944C899.942 475.357 898.497 477.091 897.405 479.146C896.313 481.137 895.767 483.738 895.767 486.949C895.767 490.096 896.859 492.729 899.043 494.848C901.226 496.968 904.437 498.027 908.676 498.027C912.915 498.027 917.635 495.137 922.837 489.357C924.315 487.752 925.471 486.05 926.305 484.251ZM932.471 506.023C928.617 506.023 926.691 503.101 926.691 497.257C926.691 496.871 926.659 495.779 926.594 493.981C926.016 494.688 925.374 495.458 924.668 496.293C918.888 502.844 912.594 506.119 905.786 506.119C900.327 506.119 895.799 504.385 892.203 500.917C888.478 497.321 886.616 492.729 886.616 487.141C886.616 479.37 889.634 473.109 895.671 468.356C898.368 466.237 901.387 464.631 904.727 463.539C908.13 462.448 911.919 461.902 916.094 461.902C919.562 461.902 922.966 462.48 926.305 463.636V453.424C926.305 447.773 925.117 443.534 922.741 440.708C920.429 437.882 918.021 436.469 915.516 436.469C913.011 436.469 910.956 436.791 909.351 437.433C907.809 438.075 906.428 439.006 905.208 440.227C902.511 442.86 900.969 446.135 900.584 450.053C900.777 452.108 900.359 453.553 899.332 454.388C898.304 455.158 897.18 455.544 895.96 455.544C892.492 455.544 890.822 453.232 890.951 448.608C891.079 443.791 893.52 439.359 898.272 435.313C903.153 431.139 908.612 429.052 914.649 429.052C923.64 429.052 929.709 433.515 932.856 442.442C933.948 445.653 934.494 449.186 934.494 453.039V462.961L934.398 479.146V487.719C934.398 491.573 934.847 494.688 935.746 497.064C936.71 499.44 937.191 501.142 937.191 502.17C937.191 503.133 936.71 504 935.746 504.771C934.783 505.606 933.691 506.023 932.471 506.023ZM959.541 412.675C959.541 410.427 960.087 408.757 961.179 407.665C962.27 406.574 963.459 406.028 964.743 406.028C966.027 406.028 967.183 406.574 968.211 407.665C969.239 408.757 969.624 410.427 969.367 412.675C968.789 418.648 968.436 425.584 968.307 433.483C973.574 433.483 977.555 433.323 980.253 433.001C982.95 432.68 984.877 432.52 986.033 432.52C990.4 432.391 992.584 433.997 992.584 437.336C992.584 439.263 991.46 440.612 989.212 441.383C988.441 441.639 987.542 441.736 986.515 441.672C985.487 441.607 984.363 441.575 983.143 441.575C981.987 441.511 980.831 441.479 979.675 441.479C977.684 441.479 975.757 441.479 973.895 441.479C972.097 441.479 970.491 441.511 969.078 441.575C968.821 441.575 968.532 441.575 968.211 441.575C968.211 441.704 968.211 441.8 968.211 441.864C968.211 468.453 968.596 483.449 969.367 486.852C970.138 490.256 970.973 492.697 971.872 494.174C973.477 496.743 975.532 498.027 978.037 498.027C982.083 498.027 984.813 496.036 986.226 492.055C986.804 488.843 988.441 487.238 991.139 487.238C992.102 487.238 992.937 487.655 993.643 488.49C994.414 489.261 994.799 490.417 994.799 491.958C994.799 493.5 994.318 495.169 993.354 496.968C992.391 498.766 991.107 500.339 989.501 501.688C985.969 504.642 982.019 506.119 977.652 506.119C969.688 506.119 964.197 501.72 961.179 492.922C960.087 489.71 959.541 485.761 959.541 481.072V442.25C958.192 442.314 956.715 442.41 955.11 442.539C953.119 442.603 951.609 442.121 950.582 441.094C949.618 440.002 949.137 438.878 949.137 437.722C949.137 436.502 949.651 435.442 950.678 434.543C951.706 433.579 953.247 433.098 955.302 433.098L959.541 433.194V412.675ZM1054.43 453.424C1054.43 457.535 1052.79 459.59 1049.52 459.59C1046.31 459.59 1044.7 457.535 1044.7 453.424C1044.83 442.763 1040.91 437.433 1032.95 437.433C1027.94 437.433 1023.8 440.58 1020.52 446.874C1017.63 452.589 1016.19 458.851 1016.19 465.659C1016.19 472.466 1016.67 477.797 1017.63 481.65C1018.66 485.504 1020.01 488.651 1021.68 491.091C1024.76 495.779 1028.71 498.124 1033.53 498.124C1036.61 498.124 1039.15 496.968 1041.14 494.656C1043.19 492.279 1044.57 489.807 1045.28 487.238C1046.37 483.256 1048.04 481.265 1050.29 481.265C1051.38 481.329 1052.34 481.779 1053.18 482.614C1054.01 483.449 1054.33 484.99 1054.14 487.238C1053.95 489.421 1053.24 491.733 1052.02 494.174C1050.8 496.614 1049.23 498.734 1047.3 500.532C1043.19 504.193 1038.05 506.023 1031.89 506.023C1025.14 506.023 1019.49 502.908 1014.93 496.679C1009.99 489.935 1007.52 480.591 1007.52 468.645C1007.52 456.122 1010.05 446.296 1015.13 439.167C1019.81 432.616 1025.75 429.276 1032.95 429.148C1039.05 429.02 1044.09 431.043 1048.07 435.217C1052.31 439.52 1054.43 445.589 1054.43 453.424ZM1085.35 446.874C1091.07 435.378 1098.42 429.63 1107.41 429.63C1115.51 429.63 1120.97 434.382 1123.79 443.887C1124.75 447.227 1125.24 451.337 1125.24 456.218V471.824C1125.24 483.384 1125.49 491.99 1126.01 497.642C1126.14 499.697 1125.56 501.271 1124.27 502.362C1123.05 503.454 1121.74 504 1120.32 504C1118.91 504 1117.69 503.518 1116.66 502.555C1115.64 501.592 1115.31 499.344 1115.7 495.812C1116.21 490.353 1116.47 484.38 1116.47 477.893C1116.47 471.407 1116.41 466.847 1116.28 464.214C1116.15 461.516 1116.02 458.209 1115.89 454.291C1115.83 450.374 1115.06 446.777 1113.58 443.502C1112.1 440.227 1109.89 438.589 1106.93 438.589C1104.04 438.589 1101.44 439.359 1099.13 440.901C1096.88 442.442 1094.83 444.401 1092.96 446.777C1089.18 451.851 1086.8 457.567 1085.84 463.925C1086.09 479.274 1086.51 490.513 1087.09 497.642C1087.22 499.697 1086.73 501.271 1085.64 502.362C1084.55 503.454 1083.14 504 1081.4 504C1078.13 504 1076.49 502.009 1076.49 498.027L1077.84 391.096C1077.84 377.416 1077.49 360.333 1076.78 339.846C1076.65 337.791 1077.2 336.281 1078.42 335.318C1079.7 334.291 1081.05 333.777 1082.46 333.777C1083.88 333.777 1085.06 334.291 1086.03 335.318C1087.06 336.281 1087.51 338.015 1087.38 340.52C1087.31 343.025 1087.22 346.686 1087.09 351.502C1086.96 356.255 1086.8 361.65 1086.61 367.687C1086.48 373.724 1086.35 380.21 1086.22 387.146C1086.09 394.082 1085.96 401.179 1085.84 408.436C1085.71 415.693 1085.61 422.95 1085.55 430.208C1085.48 435.924 1085.42 441.479 1085.35 446.874Z" fill="white"/>
</svg>
